<svg id="Layer_1" data-name="Layer 1" xmlns="http://www.w3.org/2000/svg" viewBox="0 0 120 19"><defs><style>.icon-logo-darkblue{fill:#1b2a44;}</style></defs><title>icon-logo-darkblue</title><path class="icon-logo-darkblue" d="M35.326,6.6c0-4.207-2.719-6.6-7.5-6.6H19.876V19h4.131V13.571h4.209L31.117,19H35.8l-3.9-6.27C34.124,11.644,35.326,9.527,35.326,6.6Zm-7.5,3.393H24.006V3.556h3.817c2.274,0,3.582,1.059,3.582,3.176C31.4,8.9,30.1,9.989,27.823,9.989Z"/><rect class="icon-logo-darkblue" x="44.031" width="4.131" height="19"/><polygon class="icon-logo-darkblue" points="64.866 14.331 59.873 0 55.428 0 62.618 19 66.879 19 74.147 0 69.886 0 64.866 14.331"/><polygon class="icon-logo-darkblue" points="85.518 11.237 94.354 11.237 94.354 7.681 85.518 7.681 85.518 3.556 95.322 3.556 95.322 0 81.387 0 81.387 19 95.609 19 95.609 15.444 85.518 15.444 85.518 11.237"/><path class="icon-logo-darkblue" d="M116.1,12.73c2.222-1.086,3.425-3.2,3.425-6.134,0-4.207-2.719-6.6-7.5-6.6h-7.948V19h4.131V13.571h4.209L115.32,19H120Zm-4.078-2.741h-3.817V3.556h3.817c2.274,0,3.581,1.059,3.581,3.176C115.608,8.9,114.3,9.989,112.026,9.989Z"/><path class="icon-logo-darkblue" d="M.316,7.069a.4.4,0,0,0,.622.27A5.113,5.113,0,0,1,6.124,7a5.529,5.529,0,0,0,3.208.644,5.408,5.408,0,0,0,2.77-1.3.4.4,0,0,0,.138-.356L11.93,3.646a.4.4,0,0,0-.635-.261,5.177,5.177,0,0,1-2.393,1,5.529,5.529,0,0,1-3.208-.644,5.132,5.132,0,0,0-5.546.6A.4.4,0,0,0,0,4.707Z"/><path class="icon-logo-darkblue" d="M.316,14.421a.4.4,0,0,0,.622.27,5.113,5.113,0,0,1,5.186-.338A5.529,5.529,0,0,0,9.332,15a5.408,5.408,0,0,0,2.77-1.3.4.4,0,0,0,.138-.356L11.93,11a.4.4,0,0,0-.635-.261,5.177,5.177,0,0,1-2.393,1A5.529,5.529,0,0,1,5.693,11.1a5.132,5.132,0,0,0-5.546.6A.4.4,0,0,0,0,12.059Z"/></svg>